:FULLY-SPECIFIED
:FORCE-ALL-JOINTS-BE-3DOF
:DEGREES
1835
root 4.73904 13.9623 27.8068 1044.88 50.8669 330.86
lfemur -43.4611 23.9843 2.72797
ltibia 61.7449 0 0
lfoot 1.83039 -4.28008 0
ltoes -18.6208 0 0
rfemur -0.51823 -0.867964 18.6418
rtibia 59.8855 0 0
rfoot -29.8693 -30.6193 0
rtoes -23.7252 0 0
lowerback 19.1229 5.30588 1.58552
upperback 1.69748 7.94173 4.92638
thorax -9.3823 3.89602 2.28175
lowerneck -4.53701 6.29356 -0.335764
upperneck 7.23519 8.39746 0.867989
head 3.14214 4.22354 0.681591
lclavicle -3.82821e-15 -9.2906e-15 0
lhumerus 54.8699 2.67634 85.4794
lradius 16.7629 0 0
lwrist -55.3684 0 0
lhand -33.3653 54.1308 0
lfingers 7.12502 0 0
lthumb -6.56649 78.6904 0
rclavicle -3.82821e-15 -9.2906e-15 0
rhumerus -69.8725 14.3006 -74.7117
rradius 124.357 0 0
rwrist -198.89 0 0
rhand -39.9497 -282.473 0
rfingers 7.12502 0 0
rthumb -12.9194 408.373 0
1836
root 4.71036 13.964 27.8137 1044.18 50.8742 330.094
lfemur -43.5604 23.9687 2.59904
ltibia 61.9146 0 0
lfoot 1.73755 -4.15806 0
ltoes -18.6586 0 0
rfemur -0.649672 -0.945748 18.6699
rtibia 59.9272 0 0
rfoot -29.8818 -30.6286 0
rtoes -23.7369 0 0
lowerback 19.106 5.27467 1.60835
upperback 1.68684 7.90519 4.92668
thorax -9.3821 3.87783 2.27896
lowerneck -4.52385 6.32677 -0.304609
upperneck 7.20147 8.44306 0.80658
head 3.1369 4.24598 0.657586
lclavicle -4.06955e-15 -9.1733e-15 0
lhumerus 54.7047 2.38605 85.2296
lradius 17.2647 0 0
lwrist -54.9467 0 0
lhand -33.3172 54.1519 0
lfingers 7.12502 0 0
lthumb -6.52005 78.2174 0
rclavicle -4.06955e-15 -9.1733e-15 0
rhumerus -69.8305 14.4129 -74.8129
rradius 124.266 0 0
rwrist -198.181 0 0
rhand -39.7202 -283.109 0
rfingers 7.12502 0 0
rthumb -12.6983 407.744 0
1837
root 4.68124 13.9657 27.8207 1043.47 50.8816 329.315
lfemur -43.6615 23.9527 2.4681
ltibia 62.0867 0 0
lfoot 1.64354 -4.03425 0
ltoes -18.6966 0 0
rfemur -0.783277 -1.02465 18.6987
rtibia 59.9696 0 0
rfoot -29.8944 -30.638 0
rtoes -23.7489 0 0
lowerback 19.0888 5.24303 1.63157
upperback 1.67601 7.86814 4.92699
thorax -9.38184 3.85939 2.2761
lowerneck -4.51046 6.36046 -0.272979
upperneck 7.16716 8.48932 0.744287
head 3.13155 4.26875 0.633226
lclavicle -4.30746e-15 -9.05321e-15 0
lhumerus 54.5373 2.09106 84.9761
lradius 17.7747 0 0
lwrist -54.5185 0 0
lhand -33.2682 54.1742 0
lfingers 7.12502 0 0
lthumb -6.47272 77.7252 0
rclavicle -4.30746e-15 -9.05321e-15 0
rhumerus -69.7878 14.5269 -74.9157
rradius 124.173 0 0
rwrist -197.461 0 0
rhand -39.4871 -283.756 0
rfingers 7.12502 0 0
rthumb -12.4737 407.106 0
1838
root 4.65168 13.9675 27.8277 1042.76 50.8891 328.525
lfemur -43.7641 23.9364 2.33516
ltibia 62.2614 0 0
lfoot 1.54838 -3.90867 0
ltoes -18.7348 0 0
rfemur -0.919011 -1.10465 18.728
rtibia 60.0126 0 0
rfoot -29.9073 -30.6476 0
rtoes -23.761 0 0
lowerback 19.0712 5.21094 1.65517
upperback 1.66501 7.83059 4.9273
thorax -9.38154 3.8407 2.27317
lowerneck -4.49685 6.39462 -0.24088
upperneck 7.13229 8.53622 0.681124
head 3.12609 4.29183 0.608518
lclavicle -4.54195e-15 -8.93036e-15 0
lhumerus 54.3676 1.79146 84.719
lradius 18.2927 0 0
lwrist -54.0841 0 0
lhand -33.2183 54.1978 0
lfingers 7.12502 0 0
lthumb -6.42451 77.2142 0
rclavicle -4.54195e-15 -8.93036e-15 0
rhumerus -69.7444 14.6426 -75.02
rradius 124.079 0 0
rwrist -196.731 0 0
rhand -39.2504 -284.411 0
rfingers 7.12502 0 0
rthumb -12.2457 406.458 0
1839
root 4.62168 13.9692 27.8349 1042.03 50.8968 327.724
lfemur -43.8684 23.9198 2.20028
ltibia 62.4384 0 0
lfoot 1.45208 -3.78135 0
ltoes -18.7732 0 0
rfemur -1.05684 -1.18573 18.7578
rtibia 60.0563 0 0
rfoot -29.9205 -30.6572 0
rtoes -23.7734 0 0
lowerback 19.0532 5.17843 1.67916
upperback 1.65383 7.79255 4.92762
thorax -9.38119 3.82177 2.27018
lowerneck -4.48301 6.42925 -0.208321
upperneck 7.09685 8.58375 0.617106
head 3.12052 4.31523 0.583467
lclavicle -4.77307e-15 -8.80476e-15 0
lhumerus 54.1958 1.48733 84.4582
lradius 18.8186 0 0
lwrist -53.6436 0 0
lhand -33.1674 54.2225 0
lfingers 7.12502 0 0
lthumb -6.37544 76.6846 0
rclavicle -4.77307e-15 -8.80476e-15 0
rhumerus -69.7004 14.76 -75.1258
rradius 123.984 0 0
rwrist -195.991 0 0
rhand -39.0101 -285.076 0
rfingers 7.12502 0 0
rthumb -12.0143 405.802 0
1840
root 4.59125 13.9711 27.8422 1041.29 50.9045 326.912
lfemur -43.9743 23.9029 2.06349
ltibia 62.6178 0 0
lfoot 1.35467 -3.6523 0
ltoes -18.8117 0 0
rfemur -1.19673 -1.26787 18.7882
rtibia 60.1006 0 0
rfoot -29.9338 -30.6669 0
rtoes -23.786 0 0
lowerback 19.0349 5.14549 1.70352
upperback 1.64247 7.75402 4.92794
thorax -9.38079 3.80259 2.26712
lowerneck -4.46895 6.46433 -0.175308
upperneck 7.06086 8.63191 0.552247
head 3.11485 4.33894 0.55808
lclavicle -5.00081e-15 -8.67646e-15 0
lhumerus 54.0218 1.17874 84.194
lradius 19.3521 0 0
lwrist -53.197 0 0
lhand -33.1157 54.2484 0
lfingers 7.12502 0 0
lthumb -6.32552 76.1365 0
rclavicle -5.00081e-15 -8.67646e-15 0
rhumerus -69.6557 14.8791 -75.233
rradius 123.887 0 0
rwrist -195.24 0 0
rhand -38.7664 -285.75 0
rfingers 7.12502 0 0
rthumb -11.7795 405.136 0
1841
root 4.5604 13.9729 27.8496 1040.54 50.9124 326.089
lfemur -44.0817 23.8857 1.92482
ltibia 62.7996 0 0
lfoot 1.25616 -3.52157 0
ltoes -18.8505 0 0
rfemur -1.33865 -1.35106 18.819
rtibia 60.1455 0 0
rfoot -29.9474 -30.6768 0
rtoes -23.7989 0 0
lowerback 19.0163 5.11214 1.72825
upperback 1.63095 7.71502 4.92827
thorax -9.38034 3.78318 2.264
lowerneck -4.45467 6.49986 -0.14185
upperneck 7.02433 8.68069 0.486562
head 3.10908 4.36295 0.532361
lclavicle -5.22522e-15 -8.54548e-15 0
lhumerus 53.8457 0.865793 83.9263
lradius 19.8933 0 0
lwrist -52.7445 0 0
lhand -33.0632 54.2754 0
lfingers 7.12502 0 0
lthumb -6.27477 75.5702 0
rclavicle -5.22522e-15 -8.54548e-15 0
rhumerus -69.6103 14.9997 -75.3418
rradius 123.789 0 0
rwrist -194.48 0 0
rhand -38.5193 -286.433 0
rfingers 7.12502 0 0
rthumb -11.5414 404.461 0
1842
root 4.52914 13.9747 27.857 1039.79 50.9204 325.254
lfemur -44.1907 23.8681 1.7843
ltibia 62.9836 0 0
lfoot 1.15657 -3.38918 0
ltoes -18.8893 0 0
rfemur -1.48256 -1.43528 18.8504
rtibia 60.1911 0 0
rfoot -29.9611 -30.6867 0
rtoes -23.8119 0 0
lowerback 18.9973 5.07838 1.75334
upperback 1.61926 7.67555 4.92861
thorax -9.37985 3.76353 2.26082
lowerneck -4.44018 6.53584 -0.107954
upperneck 6.98726 8.73006 0.420064
head 3.10321 4.38726 0.506317
lclavicle -5.44632e-15 -8.41185e-15 0
lhumerus 53.6675 0.548555 83.6553
lradius 20.442 0 0
lwrist -52.2862 0 0
lhand -33.0098 54.3035 0
lfingers 7.12502 0 0
lthumb -6.22321 74.9858 0
rclavicle -5.44632e-15 -8.41185e-15 0
rhumerus -69.5644 15.122 -75.4519
rradius 123.69 0 0
rwrist -193.709 0 0
rhand -38.2688 -287.125 0
rfingers 7.12502 0 0
rthumb -11.3001 403.778 0
1843
root 4.49747 13.9766 27.8646 1039.02 50.9286 324.41
lfemur -44.3011 23.8503 1.64197
ltibia 63.1699 0 0
lfoot 1.05592 -3.25515 0
ltoes -18.9283 0 0
rfemur -1.62844 -1.52051 18.8823
rtibia 60.2373 0 0
rfoot -29.9751 -30.6967 0
rtoes -23.8251 0 0
lowerback 18.9779 5.04422 1.7788
upperback 1.6074 7.63562 4.92895
thorax -9.37931 3.74365 2.25758
lowerneck -4.42548 6.57224 -0.0736277
upperneck 6.94966 8.78003 0.352769
head 3.09724 4.41186 0.479953
lclavicle -5.66412e-15 -8.2756e-15 0
lhumerus 53.4872 0.227114 83.3809
lradius 20.9979 0 0
lwrist -51.8222 0 0
lhand -32.9556 54.3327 0
lfingers 7.12502 0 0
lthumb -6.17084 74.3837 0
rclavicle -5.66412e-15 -8.2756e-15 0
rhumerus -69.5178 15.2457 -75.5635
rradius 123.589 0 0
rwrist -192.93 0 0
rhand -38.015 -287.825 0
rfingers 7.12502 0 0
rthumb -11.0556 403.086 0
1844
root 4.46541 13.9785 27.8723 1038.25 50.9368 323.555
lfemur -44.4131 23.8322 1.49787
ltibia 63.3584 0 0
lfoot 0.954225 -3.11952 0
ltoes -18.9675 0 0
rfemur -1.77623 -1.60674 18.9147
rtibia 60.284 0 0
rfoot -29.9893 -30.7068 0
rtoes -23.8386 0 0
lowerback 18.9582 5.00966 1.8046
upperback 1.59538 7.59524 4.9293
thorax -9.37873 3.72354 2.25428
lowerneck -4.41058 6.60907 -0.0388779
upperneck 6.91155 8.83058 0.284691
head 3.09117 4.43675 0.453275
lclavicle -5.87866e-15 -8.13675e-15 0
lhumerus 53.305 -0.098447 83.1032
lradius 21.561 0 0
lwrist -51.3526 0 0
lhand -32.9005 54.3631 0
lfingers 7.12502 0 0
lthumb -6.11769 73.7639 0
rclavicle -5.87866e-15 -8.13675e-15 0
rhumerus -69.4706 15.371 -75.6764
rradius 123.487 0 0
rwrist -192.14 0 0
rhand -37.7579 -288.534 0
rfingers 7.12502 0 0
rthumb -10.8079 402.385 0
1845
root 4.43294 13.9805 27.8801 1037.46 50.9452 322.689
lfemur -44.5265 23.8139 1.35203
ltibia 63.549 0 0
lfoot 0.851512 -2.9823 0
ltoes -19.0068 0 0
rfemur -1.92592 -1.69395 18.9476
rtibia 60.3313 0 0
rfoot -30.0036 -30.717 0
rtoes -23.8522 0 0
lowerback 18.9382 4.97472 1.83075
upperback 1.58321 7.55442 4.92966
thorax -9.3781 3.70322 2.25092
lowerneck -4.39547 6.64632 -0.0037124
upperneck 6.87293 8.8817 0.215844
head 3.08501 4.46193 0.426288
lclavicle -6.08995e-15 -7.99534e-15 0
lhumerus 53.1207 -0.428046 82.8224
lradius 22.1312 0 0
lwrist -50.8776 0 0
lhand -32.8447 54.3945 0
lfingers 7.12502 0 0
lthumb -6.06377 73.1267 0
rclavicle -6.08995e-15 -7.99534e-15 0
rhumerus -69.4228 15.4978 -75.7907
rradius 123.383 0 0
rwrist -191.342 0 0
rhand -37.4977 -289.251 0
rfingers 7.12502 0 0
rthumb -10.5572 401.677 0
